# Rhino

g object_1
v 18.6165 121.08018 2.565283
v 15.537777 172.525711 1.747271
v 19.193884 188.973534 -2.045246
v 15.516657 171.460505 0.256389
v 15.209728 168.251462 0.441269
v 14.219776 161.202358 0.317435
v 14.820441 139.344045 -0.836591
v 9.631397 168.221571 14.328456
v 13.400943 139.4263 4.907206
v 13.400943 139.4263 4.907206
v 16.438377 130.524919 5.121912
v 16.438377 130.524919 5.121912
v 4.963122 189.343934 4.023435
v 6.367242 191.802274 1.625986
v 6.700856 193.563912 -1.879109
v -0.016519 164.358342 13.597626
v 17.724349 184.70496 3.159459
v 17.914573 121.099385 5.654642
v 17.914573 121.099385 5.654642
v 16.660197 180.12252 4.306044
v 15.956074 176.634941 4.29569
v 15.956074 176.634941 4.29569
v 15.681801 173.903114 3.456586
v 4.978466 130.295679 10.416209
v 4.978466 130.295679 10.416209
v -0.012907 146.118377 11.212277
v -0.012907 146.118377 11.212277
v 12.749447 153.063502 -0.172981
v 7.134609 186.803738 5.327491
v 8.738405 139.372521 8.780951
v 8.738405 139.372521 8.780951
v 7.991224 180.531809 8.790857000000001
v 7.991224 180.531809 8.790857000000001
v 7.991224 180.531809 8.790857000000001
v 8.900465000000001 175.683413 11.396614
v 10.575977 121.078963 9.340852
v 10.575977 121.078963 9.340852
v 9.977396000000001 130.453033 9.179218000000001
v 9.977396000000001 130.453033 9.179218000000001
v 0.064466 153.085703 11.20432
v 12.999448 180.630922 7.086413
v 12.393553 185.912263 4.4226
v 12.205469 191.290597 -2.00796
v 12.278751 189.750073 1.34523
v 18.540346 187.739414 0.947291
v 13.023159 176.345754 8.612377
v 13.023159 176.345754 8.612377
v 3.389255 188.294699 5.477988
v -0.067201 187.47068 5.983596
v -0.067201 187.47068 5.983596
v 12.421954 146.120002 -0.557541
v 12.421954 146.120002 -0.557541
v 19.072221 121.0825 -1.616966
v 11.580151 146.0778 4.941904
v 11.580151 146.0778 4.941904
v 11.580151 146.0778 4.941904
v 11.580151 146.0778 4.941904
v 12.148189 153.027606 5.300364
v 12.148189 153.027606 5.300364
v 13.611023 161.301262 6.150677
v 13.611023 161.301262 6.150677
v 17.198734 130.628042 -1.095439
v 14.880771 168.318692 6.641598
v 8.057565 146.078023 9.049264000000001
v 8.057565 146.078023 9.049264000000001
v 8.057565 146.078023 9.049264000000001
v 8.057565 146.078023 9.049264000000001
v 8.325039 153.01599 9.590137
v 8.325039 153.01599 9.590137
v 8.799434 161.153964 11.626332
v 8.799434 161.153964 11.626332
v -0.017698 161.21564 12.058558
v -0.017698 161.21564 12.058558
v -0.01672 139.362901 11.382814
v -0.016516 130.304438 10.994264
v -0.016516 130.304438 10.994264
v -0.016519 168.249701 14.986756
v 13.701257 168.2664 11.635874
v 13.305329 172.400648 10.251237
v 9.532875000000001 172.049152 13.215122
v 15.510429 172.8632 6.533944
v 9.595317 164.336461 13.571873
v 9.595317 164.336461 13.571873
v -0.016518 121.0825 10.380524
v 14.243546 164.417354 6.414871
v 14.243546 164.417354 6.414871
v 14.727545 164.339867 0.336288
v -0.016519 175.283581 12.190228
v -0.016519 175.283581 12.190228
v -0.01652 171.819409 13.779356
v -0.016528 180.717633 9.547692
v 12.721679 164.262042 10.938858
v 11.36011 161.311555 10.082075
v 9.911673 153.107793 8.064511
v 9.668476 146.161205 7.318697
v 9.668476 146.161205 7.318697
v 11.06646 139.290703 7.534819
v 12.905851 130.403475 7.993438
v 13.862934 121.078273 8.443961
v 3.361922 187.355782 6.055302
v 3.361922 187.355782 6.055302
v 3.72194 180.635541 9.18576
v 3.72194 180.635541 9.18576
v 4.389228 175.476867 11.796157
v 4.389228 175.476867 11.796157
v 4.481277 171.910414 13.51755
v 4.900726 168.246748 14.651885
v 5.178176 164.36027 13.607617
v 4.776911 153.028087 10.605202
v 4.84768 161.180364 11.822596
v 4.84768 161.180364 11.822596
v 5.108549 146.119803 10.394646
v 5.108549 146.119803 10.394646
v 5.267695 139.40569 10.407348
v 4.996557 121.080511 10.210923
v 15.090512 168.275525 3.382049
v 14.684931 164.430803 3.291381
v 14.222544 161.279856 3.034095
v 12.578538 153.101479 2.913853
v 12.049034 146.160322 2.504524
v 12.049034 146.160322 2.504524
v 14.107806 139.393618 2.333532
v 16.796841 130.638837 2.253323
v 15.0679 175.112689 6.34948
v 11.228239 170.03797 12.556329
v 14.21853 168.289333 9.445644
v 14.715819 167.308794 6.582907
v 14.715819 167.308794 6.582907
v 13.628769 169.023309 11.382371
v 14.748658 166.718282 4.606162
v 14.882903 166.307493 3.335638
vt 101.0593414306641 5.280600070953369
vt -13.38350963592529 -94.59750366210938
vt -184.27685546875 -64.69602966308594
vt -2.426019906997681 -103.525390625
vt 27.3728199005127 -103.6427001953125
vt 82.95841979980469 -110.0189208984375
vt -46.96697998046875 -22.67551040649414
vt 30.33745956420898 27.66949081420898
vt -49.66598129272461 28.35350036621094
vt -48.60301971435547 -8.822019577026367
vt 31.97196960449219 -25.58403015136719
vt 32.24200057983398 36.37847137451172
vt -164.1030731201172 89.9434814453125
vt -181.9219665527344 62.48400115966797
vt -223.7350769042969 39.38011169433594
vt 50.13935089111328 119.6879730224609
vt -158.1234741210938 -51.31346130371094
vt 98.86901092529297 -37.78404998779297
vt 100.2249603271484 37.887451171875
vt -106.9015426635742 -45.86737060546875
vt -52.76823043823242 -75.7459716796875
vt -77.98406982421875 -49.48175048828125
vt -26.20259094238281 -84.15292358398438
vt 46.25883102416992 0.1332599967718124
vt 15.66969013214111 0.1332599967718124
vt 205.5086822509766 119.6879730224609
vt -81.35574340820313 38.94445037841797
vt 159.2420196533203 -115.8203735351563
vt -156.7989501953125 52.20854187011719
vt -48.31161117553711 -19.54438018798828
vt -47.85498046875 35.47196960449219
vt -84.0885009765625 42.67407989501953
vt -98.30738067626953 44.53861999511719
vt -91.19792175292969 43.60633087158203
vt -66.38748168945313 40.35295104980469
vt 100.489990234375 -38.94451141357422
vt 100.504020690918 30.09593963623047
vt 31.29496955871582 -38.154541015625
vt 31.30797958374023 30.81195068359375
vt 170.0659332275391 119.6879730224609
vt -103.234260559082 -7.289609909057617
vt -157.5749359130859 -8.440759658813477
vt -203.55224609375 -13.85466957092285
vt -177.2713165283203 -10.76004981994629
vt -171.7073364257813 -58.26425170898438
vt -60.54727172851563 -9.432519912719727
vt -71.36032104492188 1.830080032348633
vt -159.95361328125 98.72604370117188
vt -155.363525390625 108.4413909912109
vt -139.1047210693359 110.6907196044922
vt -102.1640014648438 -23.23044967651367
vt 210.0978546142578 -119.6879730224609
vt 102.1640014648438 -37.88748168945313
vt 214.6436309814453 -68.04228210449219
vt -102.1640014648438 27.86948013305664
vt -100.5039901733398 -0.9159500002861023
vt 217.1690521240234 -50.40264129638672
vt 163.9953155517578 -60.56558990478516
vt 165.6121826171875 -44.49652099609375
vt 88.27690124511719 -35.63732147216797
vt 88.02290344238281 -49.35063171386719
vt 34.33501052856445 -34.79051971435547
vt 30.28910064697266 -46.18627166748047
vt -100.489990234375 -31.75547027587891
vt 220.1994934082031 -11.67424964904785
vt -100.5039901733398 37.78398132324219
vt 223.2299957275391 49.36100006103516
vt 169.3000640869141 -1.126700043678284
vt 171.4175567626953 43.53446960449219
vt 92.95094299316406 14.694580078125
vt 93.69886016845703 34.79473114013672
vt 66.082763671875 119.6879730224609
vt 121.3322219848633 119.6879730224609
vt -49.4653205871582 38.94445037841797
vt -0.169170007109642 38.94445037841797
vt 61.42724990844727 38.94445037841797
vt 29.72706031799316 119.6879730224609
vt 30.31241035461426 -10.57608985900879
vt -12.63951015472412 -10.03549957275391
vt -21.19380950927734 46.34442138671875
vt -9.097539901733398 -60.20378112792969
vt 66.26155090332031 31.70928955078125
vt 65.83750152587891 20.31307983398438
vt 99.2099609375 38.94445037841797
vt 64.22563171386719 -40.01264190673828
vt 64.07698059082031 -48.03816986083984
vt 58.72177124023438 -107.2387237548828
vt -22.06904983520508 119.6879730224609
vt -73.01039123535156 119.6879730224609
vt 3.077130079269409 119.6879730224609
vt -94.32122039794922 119.6879730224609
vt 64.97772979736328 -11.86515045166016
vt 90.59580993652344 -10.66621017456055
vt 167.7657928466797 -19.16970062255859
vt -100.5039901733398 19.94389724731445
vt 218.8025054931641 -29.52742004394531
vt -48.18154144287109 16.13446998596191
vt 31.58403015136719 7.36536979675293
vt 99.84921264648438 2.910540103912354
vt -155.9385833740234 85.91351318359375
vt -146.1933441162109 87.26170349121094
vt -89.56661224365234 83.90364074707031
vt -96.17337036132813 84.76997375488281
vt -44.24337005615234 79.99339294433594
vt -69.69667053222656 79.99339294433594
vt -8.558079719543457 84.52789306640625
vt 30.04729080200195 71.41194152832031
vt 59.09149169921875 70.83621215820313
vt 170.8444366455078 75.82536315917969
vt 81.40637969970703 72.58235168457031
vt 105.9990005493164 72.58235168457031
vt -92.89852142333984 -3.705440044403076
vt 216.1991119384766 77.2630615234375
vt -48.81724166870117 6.08981990814209
vt 99.82096862792969 1.764150023460388
vt 28.84589958190918 -74.619873046875
vt 61.19247055053711 -79.92564392089844
vt 85.20462036132813 -83.11131286621094
vt 161.5610046386719 -88.86328125
vt 212.6288299560547 -90.93289184570313
vt -102.1640014648438 5.220749855041504
vt -48.39025115966797 4.233860015869141
vt 33.20214080810547 3.730289936065674
vt -38.51185989379883 -52.40127563476563
vt 11.6579008102417 11.28135108947754
vt 30.30218887329102 -26.19286346435547
vt 39.0354118347168 -46.6656494140625
vt 39.07389068603516 -44.58816528320313
vt 22.44866752624512 -10.47711753845215
vt 43.06594085693359 -63.89091491699219
vt 45.40342330932617 -77.33578491210938
vn 0.9682592153549194 0.188693568110466 0.1639170944690704
vn 0.9950161576271057 -0.09719648957252502 0.02226478420197964
vn 0.2964156568050385 0.8641664385795593 0.4066375195980072
vn 0.9949789643287659 -0.08984151482582092 0.04410648345947266
vn 0.9936061501502991 -0.1062413975596428 0.0382051058113575
vn 0.9850661158561707 -0.1707856059074402 0.02184149064123631
vn 0.9442440867424011 0.2880353331565857 0.1594952940940857
vn 0.3733163177967072 0.09758609533309937 0.9225572347640991
vn 0.9307128190994263 0.284360945224762 0.2300272583961487
vn 0.7072544693946838 0.198255866765976 0.6785909533500671
vn 0.6297027468681335 0.1643221825361252 0.759257972240448
vn 0.9513529539108276 0.2573682367801666 0.1693787723779678
vn 0.253898948431015 0.5899313688278198 0.7664961218833923
vn 0.2969906628131867 0.7397192716598511 0.6038310527801514
vn 0.3503720760345459 0.8230557441711426 0.4470107853412628
vn 0.02457936108112335 -0.383345752954483 0.9232777953147888
vn 0.3585772812366486 0.4437682628631592 0.8212746381759644
vn 0.5924935340881348 0.1186697334051132 0.7967866063117981
vn 0.9692674279212952 0.1751599907875061 0.172741562128067
vn 0.5980918407440186 0.1912207901477814 0.7782806158065796
vn 0.9149860739707947 0.135326161980629 0.3801149427890778
vn 0.7319579124450684 0.06811673939228058 0.6779363751411438
vn 0.9932968020439148 -0.1131698563694954 0.02353711798787117
vn 0.1351236552000046 -0.02004703693091869 0.9906259179115295
vn 0.2355151921510696 0.007621247321367264 0.9718407988548279
vn 0.1425193548202515 -0.01183939632028341 0.9897211790084839
vn 0.1697297990322113 0.01536223664879799 0.9853708744049072
vn 0.9899502396583557 -0.1277715116739273 0.06060503050684929
vn 0.2335954159498215 0.5569995045661926 0.7969847917556763
vn 0.3704249262809753 0.02365093305706978 0.928561270236969
vn 0.5648068189620972 0.09277504682540894 0.8199914693832398
vn 0.07407074421644211 0.4701043963432312 0.879497230052948
vn 0.2053806632757187 0.4689526855945587 0.8590123057365418
vn 0.3736207783222199 0.4137213230133057 0.8302060961723328
vn 0.2551967799663544 0.4433309733867645 0.8592625856399536
vn 0.1952878534793854 0.004175395239144564 0.9807370901107788
vn 0.3196788132190704 0.05679683014750481 0.9458221793174744
vn 0.25798299908638 0.02124106511473656 0.9659159183502197
vn 0.408123642206192 0.09000544995069504 0.9084790349006653
vn 0.1139720678329468 -0.06891029328107834 0.9910911917686462
vn 0.4629316031932831 0.3265500962734222 0.8240506052970886
vn 0.3014642894268036 0.4972011148929596 0.813578724861145
vn 0.3202632665634155 0.8536605834960938 0.4107249975204468
vn 0.284065455198288 0.7491273283958435 0.5984271764755249
vn 0.2933667898178101 0.7327382564544678 0.6140281558036804
vn 0.6542617082595825 0.3532743752002716 0.6686843633651733
vn 0.5725263357162476 0.2495208829641342 0.7809948325157166
vn 0.131885752081871 0.5567465424537659 0.8201459646224976
vn -0.0002626697823870927 0.5237863659858704 0.8518496155738831
vn 0.04844299703836441 0.4456355273723602 0.8939028382301331
vn 0.9393150210380554 0.3038626909255981 0.1592318713665009
vn 0.9938377141952515 -0.06641639024019241 0.08874401450157166
vn 0.9759886264801025 0.1874572485685349 0.110932357609272
vn 0.9798234105110169 -0.08737464994192123 0.1797545999288559
vn 0.9470257759094238 0.2582443356513977 0.1909243166446686
vn 0.7481508851051331 0.1866328865289688 0.6367404460906982
vn 0.7732491493225098 -0.09496082365512848 0.6269515156745911
vn 0.9711918234825134 -0.1587495654821396 0.1777216196060181
vn 0.7922070622444153 -0.1664965450763702 0.5871003866195679
vn 0.8359593152999878 -0.2957091331481934 0.4623073935508728
vn 0.9673975110054016 -0.1853603422641754 0.1725791692733765
vn 0.9636905193328857 0.2300889641046524 0.1354978829622269
vn 0.9827739596366882 -0.141610860824585 0.118750661611557
vn 0.420156329870224 0.00901532918214798 0.9074069261550903
vn 0.7122926712036133 -0.09036407619714737 0.6960413455963135
vn 0.7300313115119934 0.04684167727828026 0.6818065047264099
vn 0.3406900763511658 -0.04937367886304855 0.9388783574104309
vn 0.631732702255249 -0.2036608308553696 0.7479545474052429
vn 0.249785840511322 -0.124824769794941 0.9602217674255371
vn 0.5163413286209106 -0.408429354429245 0.752713143825531
vn 0.08946370333433151 -0.3591400980949402 0.9289858341217041
vn 0.01832477562129498 -0.4660266041755676 0.8845809102058411
vn 0.0849604532122612 -0.1257004588842392 0.9884235262870789
vn 0.1596365123987198 -0.003837593132629991 0.9871684312820435
vn 0.1494675874710083 -0.02303560450673103 0.9884982705116272
vn 0.0743778795003891 -0.04418317973613739 0.9962508678436279
vn 0.04611540958285332 0.00684672873467207 0.9989126324653626
vn 0.7866372466087341 -0.05006194487214088 0.6153824925422669
vn 0.7467362880706787 0.2539878487586975 0.6147154569625855
vn 0.3106984794139862 0.3596014082431793 0.8798598051071167
vn 0.9494478702545166 0.02233764342963696 0.3131289184093475
vn 0.02926755137741566 -0.3708325922489166 0.9282384514808655
vn 0.574434220790863 -0.3307872414588928 0.7487356662750244
vn 0.0743778795003891 -0.04418317973613739 0.9962508678436279
vn 0.9013276696205139 -0.2624793648719788 0.3445475995540619
vn 0.980535626411438 -0.1601764410734177 0.1135491132736206
vn 0.9916940331459045 -0.1271362900733948 0.01947649195790291
vn 0.05293133854866028 0.4259767830371857 0.9031844139099121
vn 0.07663846015930176 0.4468368589878082 0.8913267254829407
vn 0.0551869347691536 0.3689508140087128 0.9278090596199036
vn 0.06254700571298599 0.4462809860706329 0.8927044272422791
vn 0.7966070771217346 -0.3455467224121094 0.4959986209869385
vn 0.6850571632385254 -0.3195133209228516 0.6546815037727356
vn 0.7399913668632507 -0.1608696728944778 0.6530954837799072
vn 0.6598283052444458 0.1207789331674576 0.7416461706161499
vn 0.7524046301841736 -0.09658676385879517 0.651581346988678
vn 0.5550684332847595 0.1522416472434998 0.8177539706230164
vn 0.4616979360580444 0.1152046173810959 0.8795242309570313
vn 0.4351038038730621 0.09775318950414658 0.8950580954551697
vn 0.131885752081871 0.5567465424537659 0.8201459646224976
vn 0.104111023247242 0.4528546035289764 0.8854849338531494
vn 0.07536108791828156 0.4585100710391998 0.8854881525039673
vn 0.104111023247242 0.4528546035289764 0.8854849338531494
vn 0.05126580223441124 0.4353356659412384 0.8988073468208313
vn 0.07536108791828156 0.4585100710391998 0.8854881525039673
vn 0.05451880767941475 0.3689132034778595 0.9278635382652283
vn 0.0475933663547039 0.020617650821805 0.9986540079116821
vn 0.02691517397761345 -0.3771226704120636 0.9257721304893494
vn 0.1822164058685303 -0.09706863015890122 0.9784553647041321
vn 0.01957548409700394 -0.4873766601085663 0.8729723691940308
vn 0.1202816069126129 -0.1623052805662155 0.9793820977210999
vn 0.2975139915943146 0.01229502912610769 0.9546383023262024
vn 0.2429220527410507 -0.03077341802418232 0.9695575833320618
vn 0.2665857672691345 0.009958226233720779 0.9637597799301148
vn 0.1351236552000046 -0.02004703693091869 0.9906259179115295
vn 0.9918321967124939 -0.1129538640379906 0.05924833565950394
vn 0.9841755032539368 -0.1467524766921997 0.09930917620658875
vn 0.9768459796905518 -0.1777587085962296 0.1190534085035324
vn 0.9834955930709839 -0.1256930083036423 0.1301446855068207
vn 0.9876079559326172 -0.07610840350389481 0.1372519135475159
vn 0.9389097690582275 0.2796035408973694 0.2006746530532837
vn 0.9372501969337463 0.2924726605415344 0.1897942125797272
vn 0.9638975262641907 0.2203699797391892 0.149461105465889
vn 0.8165115118026733 0.2328528016805649 0.5282882452011108
vn 0.5433152318000794 0.2907398343086243 0.7875778675079346
vn 0.9592856764793396 -0.05783278122544289 0.2764531373977661
vn 0.9841893911361694 -0.1645595729351044 0.06550872325897217
vn 0.9445326924324036 -0.1987214833498001 0.2614723145961762
vn 0.7948298454284668 0.2597920298576355 0.5484100580215454
vn 0.9854249358177185 -0.135991096496582 0.102196715772152
vn 0.9912503957748413 -0.1098451763391495 0.07318970561027527
f 131/131/131 117/117/117 87/87/87
f 131/131/131 87/87/87 5/5/5
f 131/131/131 5/5/5 116/116/116
f 126/126/126 78/78/78 92/92/92
f 128/128/128 126/126/126 92/92/92
f 128/128/128 92/92/92 85/85/85
f 129/129/129 126/126/126 79/79/79
f 126/126/126 63/63/63 81/81/81
f 126/126/126 81/81/81 79/79/79
f 92/92/92 78/78/78 83/83/83
f 1/1/1 123/123/123 19/19/19
f 14/14/14 29/29/29 44/44/44
f 113/113/113 67/67/67 69/69/69 109/109/109
f 2/2/2 116/116/116 5/5/5 4/4/4
f 41/41/41 34/34/34 35/35/35 47/47/47
f 24/24/24 76/76/76 84/84/84 115/115/115
f 109/109/109 69/69/69 71/71/71 111/111/111
f 22/22/22 20/20/20 41/41/41 47/47/47
f 21/21/21 124/124/124 81/81/81
f 37/37/37 98/98/98 39/39/39
f 44/44/44 42/42/42 17/17/17 45/45/45
f 95/95/95 66/66/66 31/31/31
f 112/112/112 27/27/27 74/74/74 114/114/114
f 29/29/29 42/42/42 44/44/44
f 124/124/124 79/79/79 81/81/81
f 97/97/97 31/31/31 39/39/39
f 119/119/119 118/118/118 58/58/58
f 117/117/117 61/61/61 118/118/118
f 116/116/116 23/23/23 63/63/63
f 78/78/78 8/8/8 83/83/83
f 25/25/25 114/114/114 74/74/74 75/75/75
f 3/3/3 43/43/43 44/44/44
f 39/39/39 98/98/98 97/97/97
f 100/100/100 29/29/29 13/13/13 48/48/48
f 79/79/79 124/124/124 21/21/21 46/46/46
f 8/8/8 125/125/125 79/79/79 80/80/80
f 121/121/121 9/9/9 122/122/122
f 92/92/92 83/83/83 70/70/70
f 43/43/43 15/15/15 14/14/14
f 81/81/81 23/23/23 21/21/21
f 118/118/118 6/6/6 87/87/87 117/117/117
f 106/106/106 90/90/90 77/77/77 107/107/107
f 20/20/20 17/17/17 42/42/42 41/41/41
f 37/37/37 99/99/99 98/98/98
f 119/119/119 28/28/28 6/6/6 118/118/118
f 108/108/108 82/82/82 8/8/8 107/107/107
f 41/41/41 42/42/42 29/29/29 33/33/33
f 131/131/131 116/116/116 130/130/130
f 111/111/111 73/73/73 40/40/40 109/109/109
f 68/68/68 94/94/94 93/93/93
f 110/110/110 71/71/71 82/82/82 108/108/108
f 1/1/1 53/53/53 62/62/62 123/123/123
f 70/70/70 68/68/68 93/93/93
f 98/98/98 11/11/11 10/10/10 97/97/97
f 108/108/108 16/16/16 72/72/72 110/110/110
f 126/126/126 128/128/128 63/63/63
f 120/120/120 52/52/52 28/28/28 119/119/119
f 25/25/25 38/38/38 30/30/30 114/114/114
f 14/14/14 44/44/44 43/43/43
f 94/94/94 59/59/59 60/60/60 93/93/93
f 103/103/103 33/33/33 29/29/29 101/101/101
f 96/96/96 57/57/57 59/59/59 94/94/94
f 97/97/97 10/10/10 56/56/56 95/95/95
f 116/116/116 2/2/2 23/23/23
f 123/123/123 122/122/122 12/12/12
f 91/91/91 103/103/103 101/101/101 50/50/50
f 105/105/105 35/35/35 32/32/32 102/102/102
f 45/45/45 3/3/3 44/44/44
f 106/106/106 80/80/80 35/35/35 104/104/104
f 107/107/107 8/8/8 80/80/80 106/106/106
f 48/48/48 49/49/49 100/100/100
f 113/113/113 109/109/109 40/40/40 26/26/26
f 115/115/115 36/36/36 38/38/38 24/24/24
f 65/65/65 96/96/96 94/94/94
f 23/23/23 81/81/81 63/63/63
f 130/130/130 116/116/116 63/63/63 127/127/127
f 130/130/130 127/127/127 86/86/86
f 79/79/79 46/46/46 35/35/35 80/80/80
f 117/117/117 86/86/86 61/61/61
f 78/78/78 129/129/129 125/125/125 8/8/8
f 118/118/118 61/61/61 58/58/58
f 119/119/119 58/58/58 54/54/54
f 123/123/123 62/62/62 7/7/7 122/122/122
f 130/130/130 86/86/86 117/117/117 131/131/131
f 129/129/129 79/79/79 125/125/125
f 126/126/126 129/129/129 78/78/78
f 31/31/31 97/97/97 95/95/95
f 92/92/92 93/93/93 60/60/60 85/85/85
f 121/121/121 55/55/55 9/9/9
f 70/70/70 93/93/93 92/92/92
f 122/122/122 9/9/9 12/12/12
f 122/122/122 7/7/7 51/51/51 121/121/121
f 123/123/123 12/12/12 19/19/19
f 102/102/102 91/91/91 89/89/89 105/105/105
f 94/94/94 68/68/68 65/65/65
f 99/99/99 18/18/18 11/11/11 98/98/98
f 29/29/29 14/14/14 13/13/13
f 108/108/108 107/107/107 77/77/77 16/16/16
f 114/114/114 30/30/30 64/64/64 112/112/112
f 90/90/90 106/106/106 104/104/104 88/88/88
f 119/119/119 54/54/54 120/120/120
